<svg width="262" height="40" viewBox="0 0 262 40" fill="none" xmlns="http://www.w3.org/2000/svg">
<path fill-rule="evenodd" clip-rule="evenodd" d="M248.299 15.3469L249.068 12.9106L248.103 10.8095L251.498 9.59309C250.376 11.4765 249.308 13.3944 248.302 15.3434M250.849 18.5607C250.983 19.4143 251.237 20.2471 251.605 21.0281C251.938 21.7469 252.329 22.438 252.772 23.0911C250.771 23.6302 249.236 24.5322 247.55 25.8419C248.556 23.3745 249.658 20.9417 250.849 18.5607ZM229.83 25.054C229.912 25.3097 230.001 25.5654 230.101 25.8212C229.747 25.8177 229.397 25.8384 229.047 25.8937C229.305 25.6104 229.565 25.3305 229.833 25.054H229.83ZM242.264 7.13952C242.329 6.65227 242.377 6.16155 242.404 5.67084L242.418 5.45659L240.455 0.0276458L238.251 2.42937C237.087 2.69201 234.842 3.67343 233.489 4.24363C232.446 6.62117 233.479 8.24536 234.67 10.1978L235.597 9.14384C235.7 9.02981 235.83 8.94341 235.978 8.89503C236.225 8.81901 236.486 8.78099 236.747 8.78445C237.159 8.7879 237.568 8.83974 237.969 8.92959C236.579 11.5421 234.742 13.6467 232.14 14.8942L232.082 14.2307L228.697 14.9978L228.752 15.6475C225.7 15.2743 224.735 12.5097 224.488 9.873L227.08 8.20043L228.512 0.196976L224.183 2.52268V0L221.309 3.51101L221.193 4.18488L220.509 4.35076L220.4 12.4095L221.199 11.9084C221.464 15.1844 222.301 18.4052 224.711 20.6652C225.957 21.8091 227.564 22.4726 229.25 22.5451C229.363 23.3503 229.541 24.1451 229.785 24.9227L227.313 22.7629C226.095 23.3641 225.552 23.9793 224.79 24.9641C223.692 26.495 222.689 28.0985 221.793 29.7572C221.278 30.165 221.361 30.1408 220.997 30.6454C220.43 31.4263 220.338 32.5356 220.746 33.4134L220.036 35.1136L222.089 40L223.098 37.9819C223.887 36.4026 224.952 34.9754 226.242 33.7728C227.578 32.5287 229.329 31.8376 231.148 31.8341C232.161 31.8479 233.163 32.0587 234.097 32.4492C235.302 34.4156 237.344 35.8428 239.167 37.1836L240.609 31.1464C240.122 29.5153 239.03 28.1365 237.557 27.3002C235.209 26.0251 234.004 24.0587 233.39 21.4946C237.523 18.3361 241.007 13.5326 242.061 8.33175L244.011 12.8518C244.059 12.9693 244.083 13.1006 244.076 13.2285C244.063 13.7711 243.987 13.9093 243.836 14.3689L246.445 19.1309C245.415 21.3356 244.464 23.5749 243.589 25.8488C242.762 28.0708 242.082 30.3447 241.557 32.6566L240.997 33.5931L241.138 36.9451L243.119 39.4644C244.495 36.603 245.515 34.6436 247.496 32.3076C249.741 29.657 252.964 28.0432 256.311 29.8333C258.144 30.8112 259.023 31.9896 260.287 33.4376L261.982 28.1089C262.236 26.5711 259.679 24.0276 258.443 22.8976C257.798 22.286 257.187 21.6363 256.617 20.9521L258.642 21.1041L260.977 15.0289C258.948 15.1188 256.915 15.0877 254.893 14.9425C254.399 14.87 253.503 14.7283 253.101 14.3205C253.428 13.74 253.757 13.1629 254.094 12.5927C255.453 10.2635 256.836 8.08985 258.398 5.89201L258.553 4.4406L258.879 3.91879L259.421 0.131317C257.29 1.27171 255.12 2.33261 252.909 3.31058C251.567 3.88423 247.956 5.40821 246.037 4.83456L245.875 3.54212L243.276 4.32311L242.271 7.14298L242.264 7.13952ZM61.0646 11.6527C61.0096 13.1525 60.4638 14.5935 59.5095 15.7477L59.4786 15.7857C57.9097 17.8834 56.1418 19.822 54.1988 21.5741C53.8349 21.8816 53.4675 22.1823 53.0865 22.4726C51.6172 18.5987 51.4524 14.3551 52.2042 10.3084L51.4421 9.2959L51.9124 9.08164L51.83 8.32484C51.8026 8.07948 51.8609 7.82721 51.9914 7.61987C52.4651 6.97365 54.3601 6.96328 55.2115 6.98402C56.2551 6.98747 57.2918 7.17408 58.2702 7.53693C59.3447 7.97235 59.9283 8.7257 60.4844 9.70022C60.8689 10.2773 61.0714 10.9581 61.0611 11.6527H61.0646ZM64.4906 12.9728C64.7172 14.4069 64.5318 15.879 63.9654 17.2164C62.7639 19.8048 61.7992 22.0406 61.5658 24.9158C60.481 24.4112 59.331 24.0691 58.1466 23.9102C61.0302 20.7758 63.1964 17.0436 64.4872 12.9762L64.4906 12.9728ZM65.4793 26.9961C65.3935 26.7508 65.3385 26.4916 65.3076 26.2359C65.2287 25.6968 65.1806 25.1542 65.1635 24.6082C65.1497 20.5754 67.3056 15.8376 69.3722 12.1849L66.9383 8.14514L64.5558 12.7689C64.6897 12.3335 64.8133 11.8981 64.9266 11.4592C65.2184 10.6298 65.3729 9.75551 65.3832 8.8743C65.4175 6.98056 64.6417 5.16631 63.2513 3.8946C61.7992 2.60216 60.0519 1.6933 58.1603 1.25443C55.6097 0.625486 53.392 1.01598 51.1435 2.10108C49.8836 2.67473 48.8846 3.70108 48.3456 4.98315C47.6041 6.76285 47.6144 8.13132 47.7312 10.108H47.7895L47.3192 11.4073C47.151 11.8808 47.3364 12.4095 47.7689 12.6618C47.8032 12.838 47.9337 14.2929 47.8925 14.6903C47.7415 15.3641 47.6659 16.0518 47.6694 16.743V16.7741C47.7861 19.8255 48.404 22.8354 49.5025 25.6829V29.0384L50.8654 29.5706L51.4696 31.0255H49.2382L46.9828 38.8251L49.2313 37.4981C50.2475 36.9002 51.3975 36.5754 52.575 36.5616C54.1438 36.5443 55.6509 37.1525 56.7734 38.2583L57.6832 39.1568L60.5256 34.692C59.2074 33.2821 57.999 31.7754 56.9107 30.1788C58.9362 30.4518 60.9753 31.4367 62.5991 32.7188C63.0728 33.7866 64.0855 35.2346 65.1188 35.6769L65.3832 36.1192L65.5651 36.527L65.4759 39.9724L70.0622 33.9283C69.6365 32.4458 68.8916 31.0704 67.8789 29.9058L66.4165 28.451C65.9942 28.0467 65.675 27.549 65.4793 26.9961ZM108.693 6.34125C108.662 6.99438 108.442 7.62678 108.061 8.15896C107.574 8.85702 107.011 9.49978 106.382 10.07C105.133 11.1654 103.794 12.1538 102.376 13.0177C101.7 12.2505 101.823 9.84881 102.033 8.83974C102.191 8.15896 102.503 7.52311 102.946 6.98402C103.866 5.92311 104.982 6.29633 106.101 6.57279L106.544 4.61339C107.694 4.35421 108.59 5.13175 108.696 6.34125H108.693ZM98.9192 15.2605C98.1331 15.4851 97.3126 15.5819 96.4956 15.5404L96.3274 15.5335C96.0459 15.6199 95.7575 15.6648 95.4657 15.6752C95.3044 15.689 95.1465 15.6475 95.016 15.5542C94.2127 14.3171 95.9841 11.0791 96.6123 10.2531C96.6776 12.2333 97.5152 13.9369 98.9192 15.2605ZM83.478 11.6527C83.4231 13.1525 82.8738 14.5935 81.9195 15.7477L81.8886 15.7857C80.3197 17.8834 78.5518 19.822 76.6088 21.5741C76.2483 21.8816 75.8776 22.1823 75.4965 22.4726C74.0307 18.5987 73.8659 14.3551 74.6143 10.3084L73.8521 9.2959L74.3225 9.08164L74.2401 8.32484C74.216 8.07948 74.271 7.82721 74.4014 7.61987C74.8786 6.97365 76.7701 6.96328 77.6215 6.98402C78.6651 6.98747 79.7018 7.17408 80.6802 7.53693C81.7547 7.97235 82.3383 8.7257 82.8944 9.70022C83.2789 10.2773 83.478 10.9581 83.4712 11.6527H83.478ZM91.257 11.3037L89.3517 8.14168L86.9006 12.9002C87.1306 14.3585 86.9521 15.8514 86.3788 17.213C85.1773 19.8082 84.1886 22.0233 83.9449 24.9089C82.8738 24.4043 81.7307 24.0657 80.5566 23.9032C83.787 20.3819 86.1042 16.114 87.2989 11.473C87.6181 10.6402 87.7898 9.75896 87.7966 8.86393C87.8481 4.69287 84.1646 2.146 80.5772 1.25097C78.0369 0.618574 75.802 1.01253 73.5569 2.09762C72.297 2.67127 71.2981 3.69762 70.7591 4.9797C70.0176 6.7594 70.0279 8.12786 70.1446 10.1045H70.203L69.7361 11.4039C69.5644 11.8773 69.7533 12.406 70.1858 12.6583C70.2201 12.8346 70.3506 14.2894 70.3094 14.6868C70.1583 15.3607 70.0828 16.0484 70.0897 16.7395V16.7706C70.2064 19.822 70.8243 22.832 71.9229 25.6795V29.0281L73.2548 29.5637L73.8762 31.0255H71.6585L69.4031 38.8251L71.6517 37.4981C72.6678 36.9002 73.8178 36.5754 74.9953 36.5616C76.5641 36.5443 78.0712 37.1525 79.1938 38.2583L80.1035 39.1568L82.9459 34.692C81.6277 33.2821 80.4193 31.7754 79.3311 30.1788C81.3565 30.4518 83.3956 31.4367 85.0194 32.7188C85.4931 33.7866 86.5059 35.2346 87.5392 35.6769L87.8035 36.1192L87.9854 36.527L87.8996 39.9724L92.4825 33.9283C92.0569 32.4458 91.3119 31.0704 90.2992 29.9058L88.8059 28.4544C88.2189 27.867 87.8309 27.0479 87.7245 26.2324C87.6456 25.6933 87.5975 25.1508 87.5803 24.6047C87.5701 21.0004 89.2213 17.0505 90.8519 13.8989C90.8347 17.6276 94.2265 19.2518 97.3779 19.1896C99.2969 19.1724 101.192 18.7473 102.936 17.9387C103.485 18.1702 105.902 19.2553 105.898 20.1538C105.898 20.4337 105.243 20.8104 105.047 20.9521C99.8908 25.6207 95.428 31.0151 91.796 36.9659L90.8244 38.5555H97.0552C99.06 36.0985 101.247 33.797 103.588 31.6648C105.383 30.0682 107.333 28.6652 109.417 27.473C112.52 25.6726 114.965 25.3097 118.645 25.1749L115.531 19.7114L111.638 20.3093L111.525 21.073C111.477 21.4151 111.267 21.7158 110.965 21.8747C110.825 21.8851 110.684 21.9024 110.547 21.9266C111.103 20.6307 110.79 19.1724 109.764 18.267C109.221 17.7901 108.6 17.4099 107.927 17.1542C107.433 16.7741 106.942 16.387 106.458 15.9931C107.697 15.1706 108.813 14.1719 109.771 13.0315C110.406 12.3542 110.982 11.6285 111.501 10.8579C113.001 8.58747 112.658 5.82981 111.346 3.6527C109.396 0.407775 105.641 0.442333 102.682 1.89028L102.225 1.64147C100.049 1.78315 97.9683 2.58143 96.2553 3.93952C94.5629 5.34255 93.1863 7.09114 92.2182 9.07127C91.8131 9.77624 91.4904 10.5227 91.2639 11.3037H91.257ZM135.559 28.5581C134.814 27.6009 133.839 26.8475 132.723 26.381C130.862 22.3343 127.426 14.2998 126.317 10.4259C126.921 10.1598 127.512 9.86263 128.085 9.53089C128.051 10.0596 128.037 10.5918 128.041 11.1205C128.02 12.7896 128.236 14.4518 128.683 16.0622C129.486 18.9719 130.9 20.3542 133.138 22.5901L133.554 17.759C133.667 16.8916 133.794 16.1037 134.179 15.3192L135.109 14.6695L132.603 11.1136L132.023 11.9257C131.048 8.97106 132.297 4.67905 133.389 1.84536L130.451 0.791361C127.879 3.45918 124.639 6.03369 120.777 6.1892C118.913 6.26523 117.872 5.4324 116.331 4.27473L114.779 9.73477L115.226 11.003L114.275 14.0026L120.639 23.1188L122.675 17.206C122.308 15.5991 121.834 14.0164 121.267 12.4717L122.109 12.1814C123.506 16.7914 124.944 20.9486 126.966 25.1888C125.892 25.2579 124.845 25.562 123.897 26.0769L123.921 25.3581L121.487 23.6095C120.876 25.3443 120.066 26.9996 119.081 28.5477C118.689 29.1145 118.226 29.6328 117.704 30.0821C116.832 30.8389 116.098 30.9598 114.893 31.2121L115.967 38.7076L117.007 38.5417C117.484 38.4657 117.931 38.2549 118.298 37.9369L119.06 37.1974L119.558 36.5305L120.759 37.5672C121.377 35.4419 121.93 33.6276 123.849 32.4527C125.723 31.3054 127.739 31.1499 129.894 31.2881L133.049 37.3011L133.169 36.959L134.714 37.4117L137.399 31.9585C136.959 30.7387 136.338 29.5948 135.562 28.5616L135.559 28.5581ZM155.38 18.3326C157.334 24.9676 153.887 29.1248 153.279 29.7227C152.576 30.3102 151.813 30.8251 151.007 31.2639C150.135 31.7512 149.167 32.0242 148.171 32.0691C147.354 32.0968 147.038 31.8341 146.359 31.4091C144.817 30.6765 143.499 29.5464 142.541 28.1261C141.498 26.54 140.725 24.7844 140.265 22.9391C139.51 19.6562 138.871 12.7067 141.223 9.3892C142.037 8.23845 143.633 6.83197 145.15 6.85616C145.5 6.88035 145.847 6.95292 146.177 7.06696C148.082 7.727 149.716 9.00216 150.825 10.692C152.057 12.5685 153.005 14.6177 153.63 16.7741L152.507 20.3438L155.38 18.3326ZM156.214 9.35119C155.343 7.37797 154.148 5.56371 152.679 3.98791C150.619 1.74514 147.285 0.376674 144.265 1.18186C142.088 1.76242 140.677 3.37279 139.503 5.21123C136.709 9.58272 135.875 14.0371 135.593 19.0203C135.377 21.4462 135.641 23.8894 136.365 26.2117C136.918 28.1607 137.632 30.0613 138.494 31.8929C139.489 34.2117 141.171 36.1641 143.307 37.4877C144.543 38.2514 145.514 38.4415 147.001 38.6626L147.299 37.9577C147.437 37.9715 147.577 37.9784 147.715 37.9819C150.962 37.9473 153.75 34.965 155.562 32.6082C161.058 25.4514 161.292 16.6946 156.211 9.35119H156.214ZM19.6088 12.5201C20.1924 12.9106 20.6524 13.4635 20.9339 14.1132C21.2566 14.9011 21.411 15.7477 21.3905 16.5978C21.3287 19.5214 20.1306 22.6868 18.6476 25.2924L18.6201 25.3443C18.3832 25.9006 18.0502 26.4086 17.6348 26.8441C17.1577 27.3486 16.6462 27.822 16.1072 28.2609C15.0739 29.0765 13.9925 29.8229 12.8665 30.5037C10.951 30.1235 9.56752 28.3266 8.73675 26.6194C7.98494 25.0713 7.66912 23.2881 8.0948 21.5948C8.66809 19.1896 9.29632 16.7948 9.9726 14.4173C10.158 13.5775 10.2438 13.3806 11.0196 12.997C12.6159 12.1054 14.4079 11.6216 16.2342 11.5836C17.4289 11.5456 18.6064 11.8739 19.6088 12.5201ZM8.45182 7.00475C8.45182 7.00475 8.45182 7.00475 8.45525 7.00475C8.40719 7.44363 7.45284 10.4259 7.2606 11.0376L7.24344 11.0549L7.10955 11.4454C7.07522 11.6354 6.05565 15.3296 5.99729 15.5473C5.53385 13.2665 5.64027 10.9028 6.31312 8.67387C6.96194 8.04147 7.67942 7.48164 8.45182 7.00475ZM28.7815 31.1326C23.1962 32.0069 22.8632 31.9447 21.4145 31.9482C20.6386 31.9482 19.8628 31.9171 19.087 31.8479C22.2796 27.4799 24.075 22.5002 25.3005 17.3166C26.2686 13.232 25.7125 9.01944 22.5645 6.14082C20.1374 3.9257 16.1106 4.91749 13.3609 6.08898C13.8312 4.7067 14.0097 2.88207 12.8219 1.78315C11.665 0.711879 9.69796 0.829374 8.31794 1.327L8.48958 0.9054L4.98115 2.21512L4.39756 3.42808L2.49572 5.18359L0 14.2445L1.84347 12.7102C1.13629 19.1205 2.34811 25.5654 5.3931 31.219L3.91695 37.7849C5.0807 38.2549 6.31998 38.514 7.573 38.559C9.29632 38.5382 10.9853 38.0855 12.4924 37.2492C14.353 37.8056 17.2675 38.2756 19.1831 38.6177L29.0458 31.6475C30.4362 34.3257 33.2855 38.673 36.9278 38.559C38.6477 38.476 40.2817 37.7572 41.5073 36.5374C45.5787 32.6151 47.714 27.5179 47.6453 21.9611C47.6282 18.2359 46.969 14.5382 45.7092 11.0341L47.8547 6.31361L47.1853 3.91879L40.9237 2.22549L39.0528 7.73736C41.6858 13.3287 43.2718 18.2842 43.4023 24.1832C43.4469 25.9559 43.1551 27.7218 42.5406 29.384C42.0978 30.006 41.5725 30.5659 40.9786 31.0428C40.3779 31.5369 39.6329 31.8168 38.8571 31.841C37.7826 31.8168 36.7493 31.4194 35.9254 30.7179C33.3576 28.5305 31.6617 24.933 30.9786 21.5637C30.498 19.1862 30.2645 16.7672 30.2817 14.3413C30.2817 13.149 30.34 11.9637 30.4568 10.7784L33.0864 12.4924L36.4335 5.94039L29.3411 0.266091L28.3352 3.18963L27.8134 2.9581C25.3314 12.1227 24.4492 22.3447 28.7815 31.1326ZM216.222 18.3568C218.161 24.9883 214.739 29.1214 214.117 29.733C213.41 30.324 212.645 30.8423 211.834 31.2812C210.969 31.765 209.998 32.038 209.009 32.076C208.192 32.1037 207.876 31.8445 207.2 31.4194C205.659 30.6799 204.344 29.543 203.383 28.1227C202.339 26.5434 201.57 24.7948 201.107 22.9529C200.372 19.6665 199.754 12.7067 202.099 9.39611C203.197 7.84449 205.006 6.35162 206.997 7.07041C208.899 7.74428 210.537 9.01598 211.663 10.6989C212.899 12.5788 213.846 14.635 214.474 16.7983L213.517 20.2955L216.225 18.3533L216.222 18.3568ZM190.015 12.5235C190.598 12.914 191.059 13.467 191.34 14.1166C191.663 14.9045 191.817 15.7512 191.797 16.6013C191.731 19.5248 190.537 22.6903 189.054 25.2959L189.023 25.3477C188.789 25.9041 188.456 26.4086 188.044 26.8441C187.571 27.3486 187.063 27.822 186.527 28.2609C185.501 29.0765 184.426 29.8263 183.307 30.5071C181.374 30.1339 179.977 28.3438 179.146 26.6264L179.119 26.578C178.401 25.2337 178.151 23.6855 178.408 22.1788C178.532 21.3978 180.351 14.0544 180.701 13.543C180.88 13.2838 181.213 13.1179 181.474 12.9797C183.966 11.67 187.44 10.8613 190.018 12.527L190.015 12.5235ZM178.851 7.00821C178.851 7.00821 178.851 7.00821 178.858 7.00821C178.806 7.44708 177.842 10.4812 177.65 11.0963L177.608 11.1413L176.397 15.5542C175.93 13.27 176.05 10.9028 176.747 8.67732C177.382 8.03801 178.086 7.48164 178.851 7.00821ZM199.033 31.1603C193.664 32 193.28 31.9482 191.831 31.9516C191.055 31.9516 190.279 31.9205 189.503 31.8514C192.696 27.4834 194.491 22.5037 195.717 17.3201C196.685 13.2354 196.129 9.02289 192.981 6.14428C190.55 3.9257 186.527 4.92786 183.774 6.0959C184.248 4.71361 184.426 2.88553 183.238 1.78661C182.517 1.19568 181.601 0.901944 180.671 0.967603H180.688C179.994 1.00907 179.311 1.1473 178.655 1.37538L178.817 0.943413L175.398 2.22203L174.814 3.43499L172.912 5.1905L170.413 14.2514L172.274 12.7032C171.563 19.1758 172.751 25.5862 175.837 31.2812L174.323 37.7952C175.49 38.2583 176.73 38.521 177.983 38.5693C179.706 38.5486 181.398 38.0993 182.905 37.2596C184.766 37.816 187.681 38.286 189.596 38.6281L199.308 31.7616C199.328 31.8065 199.352 31.8549 199.376 31.9032C200.348 34.2255 202.02 36.1849 204.158 37.5015C205.377 38.2479 206.356 38.4415 207.811 38.6834L208.151 37.9715C211.536 38.279 214.56 35.0307 216.414 32.6255C219.205 29.1283 220.733 24.781 220.746 20.2955C220.746 18.3948 220.424 16.508 219.795 14.711C219.136 12.8207 218.23 11.0238 217.104 9.36847C216.218 7.39525 215.013 5.58445 213.541 4.00518C211.481 1.76933 208.13 0.383585 205.116 1.19914C203.005 1.76933 201.498 3.43844 200.355 5.22505C199.733 6.19611 199.04 7.44708 198.614 8.51836C197.303 11.8739 196.568 15.4264 196.445 19.0272C196.228 21.4566 196.493 23.9067 197.224 26.2289C197.708 27.9153 198.312 29.5637 199.037 31.1603H199.033Z" fill="#F78E1E"/>
<path fill-rule="evenodd" clip-rule="evenodd" d="M186.62 10.5365C184.787 10.5365 182.916 11.041 180.973 12.0536C179.888 12.6307 179.627 13.035 179.4 14.1823C178.951 15.4678 177.643 20.6376 177.492 21.346C177.457 21.4808 177.42 21.5844 177.42 21.7503C177.385 21.8194 177.385 21.8886 177.385 21.9888C177.121 23.9136 177.344 25.2994 178.206 27.0583C179.589 29.8298 181.347 31.3469 183.52 31.5853C187.186 29.3529 189.318 27.4246 189.953 25.8039C191.862 22.3965 192.833 19.3175 192.833 16.6151C192.833 14.3171 192.085 12.6583 190.588 11.6458C189.538 10.9028 188.23 10.533 186.62 10.533V10.5365ZM178.312 6.10972C177.674 6.45183 176.891 7.09114 175.844 8.10367C175.322 9.55853 175.058 11.079 175.058 12.6687C175.058 13.1421 175.096 13.6121 175.13 14.0199L175.545 16.9261L176.218 20.1019C176.702 18.616 177.605 14.8665 178.542 11.6527C178.542 11.6181 178.577 11.6181 178.577 11.5836C178.879 10.5711 179.699 7.93434 179.775 7.76846C180.3 5.67084 179.177 5.60518 178.316 6.10972H178.312ZM196.239 32.6462L189.352 37.5153C185.054 36.7724 182.881 36.2989 182.881 36.0605C182.881 36.0374 182.894 36.0259 182.919 36.0259C181.271 37.0073 179.627 37.5119 177.979 37.5119C177.121 37.5119 176.331 37.3771 175.549 37.1041L176.671 32.2765C177.087 32.7153 177.536 32.8847 177.945 32.781C174.728 27.7806 173.122 22.2376 173.122 16.1209C173.122 14.0613 173.348 12.0639 173.719 10.1391L172.298 11.3209L173.836 5.74687L175.665 4.05702L176.153 3.04103L177.052 2.70583L176.675 3.71836C178.134 2.57106 179.486 1.99741 180.756 1.99741C182.325 1.99741 183.111 2.70928 183.111 4.12613C183.111 5.23887 182.518 6.69028 181.395 8.4527C184.313 6.75939 186.894 5.88164 189.102 5.88164C190.485 5.88164 191.57 6.2203 192.277 6.89762C194.186 8.65313 195.123 10.9857 195.123 13.9231C195.123 14.908 194.976 15.9516 194.715 17.0678C193.18 23.6544 190.787 28.8276 187.567 32.6428C188.875 32.8812 190.296 32.9849 191.834 32.9849C193.256 32.9849 194.715 32.8812 196.246 32.6428L196.239 32.6462ZM20.1822 11.6527C19.2072 10.9616 18.0126 10.5952 16.5639 10.5469C16.1554 10.533 15.7503 10.5469 15.3418 10.578H15.3315C13.7729 10.7162 12.1698 11.2069 10.5666 12.057C9.44403 12.6341 9.22089 13.0384 8.95999 14.1857C8.54804 15.4713 7.23667 20.641 7.08562 21.3495C7.05129 21.4842 7.01353 21.5879 6.9792 21.7538C6.9792 21.8229 6.9792 21.892 6.93801 21.9922C6.71487 23.9171 6.93801 25.3028 7.79967 27.0618C9.18313 29.8333 10.9408 31.3503 13.076 31.5888C16.7836 29.3564 18.912 27.4281 19.5471 25.8073C21.4558 22.4 22.4307 19.3209 22.4307 16.6186C22.4307 14.3205 21.6823 12.6618 20.1856 11.6492L20.1822 11.6527ZM7.91295 6.11317C7.27443 6.45529 6.49173 7.0946 5.41036 8.10712C4.92632 9.56198 4.65856 11.0825 4.65856 12.6721C4.65856 13.1456 4.69288 13.6156 4.73065 14.0233L5.1426 16.9296L5.81888 20.1054C6.30292 18.6194 7.20234 14.87 8.14296 11.6562C8.14296 11.6331 8.1544 11.6101 8.17729 11.587C8.47595 10.5745 9.29985 7.93779 9.37194 7.77192C9.89717 5.6743 8.77461 5.60864 7.91295 6.11317ZM25.8293 32.6497L18.9429 37.5188C14.6449 36.7758 12.4719 36.3024 12.4719 36.0639C12.4719 36.0409 12.4844 36.0294 12.5096 36.0294C10.8618 37.0108 9.21746 37.5153 7.56966 37.5153C6.71143 37.5153 5.88754 37.3806 5.13916 37.1076L6.22396 32.2799C6.67367 32.7188 7.12682 32.8881 7.5319 32.7844C4.31183 27.784 2.70866 22.241 2.70866 16.1244C2.70866 14.0648 2.89404 12.0674 3.30599 10.1425L1.88477 11.3244L3.42271 5.75032L5.25245 4.06047L5.73992 3.04449L6.63934 2.70929L6.22739 3.72181C7.72414 2.57451 9.07327 2.00086 10.3469 2.00086C11.9157 2.00086 12.7019 2.71274 12.7019 4.12959C12.7019 5.24233 12.108 6.69373 10.9854 8.45615C13.9034 6.76285 16.4472 5.88509 18.6923 5.88509C20.0757 5.88509 21.1605 6.22376 21.8677 6.90108C23.7764 8.65658 24.7136 10.9892 24.7136 13.9266C24.7136 14.9114 24.566 15.9551 24.3017 17.0713C22.7671 23.6579 20.3744 28.8311 17.1543 32.6462C18.4623 32.8847 19.8835 32.9883 21.4214 32.9883C22.8427 32.9883 24.2982 32.8847 25.8327 32.6462L25.8293 32.6497ZM46.7563 6.22721L44.5901 10.9927C45.9324 14.6384 46.6121 18.3257 46.6121 21.9749C46.6121 25.6242 45.6749 29.1698 43.8006 32.076C41.5177 35.6907 39.197 37.5188 36.8798 37.5188C35.6062 37.5188 34.4116 36.9762 33.3611 35.8946C32.0875 34.6782 31.0027 33.1577 30.0724 31.3676C27.8616 27.2415 26.7768 22.4104 26.7768 16.9365C26.7768 13.0177 27.3363 8.86047 28.4967 4.40259L28.9464 4.60302L29.8424 2.00086L35.1222 6.22376L32.6882 10.9892L29.6227 8.99525C29.3583 10.6851 29.245 12.4752 29.245 14.3343C29.245 20.178 30.3298 24.8086 32.4651 28.2263C34.4116 31.333 36.5468 32.8881 38.864 32.8881C40.5153 32.8881 42.0464 31.8721 43.4676 29.8782C44.1061 28.4613 44.4425 26.533 44.4425 24.1693C44.4425 19.3382 43.0213 13.8644 40.1754 7.67516L41.5966 3.48682L46.3512 4.77235L46.7597 6.22376L46.7563 6.22721ZM68.9089 33.7348L66.6294 36.7412C66.6637 36.3024 66.3685 35.6596 65.8089 34.813C65.5858 34.7784 65.3215 34.6436 65.0571 34.4121C64.422 33.8661 63.9002 33.0886 63.4505 32.076C60.7591 29.9162 57.9132 28.9037 54.9575 29.0695C55.7437 30.5244 57.1649 32.4492 59.2246 34.813L57.5013 37.5188C56.0801 36.1676 54.4357 35.5248 52.5682 35.5248C51.2534 35.5248 49.9798 35.8946 48.7131 36.6065L50.0244 32.076H53.0934C52.9081 31.841 52.4172 30.7594 51.6688 28.7654L50.5497 28.3266V25.486C49.3104 22.0337 48.7165 19.1309 48.7165 16.7361C48.7165 16.0553 48.7886 15.416 48.9396 14.8078C49.0117 12.8829 48.8263 11.867 48.3045 11.7667L49.2795 9.06782H48.7199C48.6444 5.95421 49.6159 3.96371 51.6036 3.04795C53.0591 2.37754 54.4426 2.00086 55.754 2.00086C56.5813 2.00086 57.2885 2.10453 57.9235 2.27386C62.2318 3.52484 64.3603 5.72268 64.3603 8.86047C64.3603 9.60345 64.2126 10.3844 63.9483 11.1551C62.5683 16.4976 59.7979 21.0592 55.7162 24.8812C57.9613 24.6428 60.2442 25.251 62.5648 26.6713V25.9283C62.5648 23.5646 63.351 20.7931 64.9232 17.6484C65.4073 16.3317 65.6304 15.1499 65.6304 14.0302C65.6304 13.7296 65.5927 13.3909 65.5515 13.1214L67.0139 10.2808L68.1742 12.2056C65.4794 17.0713 64.1337 21.194 64.1337 24.6082C64.1337 25.3166 64.2092 25.8903 64.2847 26.3637C64.3225 26.6678 64.3911 27.0099 64.5079 27.3451C64.6932 27.9533 65.1052 28.5927 65.7025 29.2043C66.1557 29.6743 66.6397 30.1512 67.1272 30.6212C68.0644 31.7374 68.6617 32.7499 68.9192 33.7313L68.9089 33.7348ZM61.3908 9.19222C60.306 7.02894 58.2462 5.95075 55.2596 5.95075C53.9482 5.95075 53.0488 6.01296 52.5613 6.15119C51.2912 6.4933 50.7316 7.27084 50.8037 8.44924L49.8288 8.88812L51.1024 10.5814C50.838 11.8981 50.7316 13.3495 50.7316 14.908C50.7316 18.3153 51.3701 21.3944 52.6369 24.0968C53.423 23.5542 54.1714 22.9771 54.882 22.3724C56.7529 20.7171 58.5483 18.7231 60.306 16.4251C61.5075 14.8354 62.1014 13.2492 62.1014 11.6942C62.1014 10.7508 61.8783 9.93866 61.3908 9.19568V9.19222ZM91.3257 33.7348L89.0463 36.7412C89.0806 36.3024 88.7854 35.6596 88.2258 34.813C88.0027 34.7784 87.7383 34.6436 87.474 34.4121C86.8424 33.8661 86.3171 33.0886 85.8674 32.076C83.176 29.9162 80.3301 28.9037 77.3744 29.0695C78.1605 30.5244 79.5818 32.4492 81.6381 34.813L79.9148 37.5188C78.4935 36.1676 76.8492 35.5248 74.9782 35.5248C73.6634 35.5248 72.3933 35.8946 71.1231 36.6065L72.431 32.076H75.5C75.3147 31.841 74.8238 30.7594 74.041 28.7654L72.9563 28.3266V25.486C71.717 22.0337 71.1231 19.1309 71.1231 16.7361C71.1231 16.0553 71.1917 15.416 71.3462 14.8078C71.4183 12.8829 71.2329 11.867 70.7111 11.7667L71.6826 9.06782H71.1231C71.0441 5.95421 72.0191 3.96371 74.0067 3.04795C75.4623 2.37754 76.8457 2.00086 78.1537 2.00086C78.981 2.00086 79.6882 2.10453 80.3267 2.27386C84.5904 3.52484 86.7634 5.72268 86.7634 8.86047C86.7634 9.60345 86.6158 10.3844 86.3137 11.1551C84.9302 16.4976 82.2011 21.0592 78.1193 24.8812C80.3645 24.6428 82.6439 25.251 84.9302 26.6713V25.9283C84.9302 23.5646 85.7541 20.7931 87.3264 17.6484C87.8104 16.3317 88.0336 15.1499 88.0336 14.0302C88.0336 13.7296 87.9958 13.3909 87.9546 13.1214L89.417 10.2808L90.5774 12.2056C87.8825 17.0713 86.5368 21.194 86.5368 24.6082C86.5368 25.3166 86.6124 25.8903 86.6879 26.3637C86.7256 26.6678 86.7977 27.0099 86.911 27.3451C87.0964 27.9533 87.5084 28.5927 88.0679 29.2043C88.5554 29.6743 89.0429 30.1512 89.5269 30.6212C90.4641 31.7374 91.0614 32.7499 91.3189 33.7313L91.3257 33.7348ZM83.8008 9.19222C82.716 7.02894 80.6563 5.95075 77.6662 5.95075C76.3548 5.95075 75.4588 6.01296 74.9679 6.15119C73.6943 6.4933 73.1382 7.27084 73.2103 8.44924L72.2388 8.88812L73.5124 10.5814C73.248 11.8981 73.1382 13.3495 73.1382 14.908C73.1382 18.3153 73.7733 21.3944 75.0435 24.0968C75.8296 23.5542 76.578 22.9771 77.2886 22.3724C79.1595 20.7171 80.9549 18.7231 82.7126 16.4251C83.9141 14.8354 84.508 13.2492 84.508 11.6942C84.508 10.7508 84.2849 9.93866 83.7974 9.19568L83.8008 9.19222ZM116.884 24.2039C112.62 24.2384 107.975 26.4708 102.891 30.8976C100.866 32.6911 98.7717 34.8855 96.5644 37.5222H92.6749C96.3447 31.5404 100.684 26.305 105.662 21.8091C106.52 21.2665 106.935 20.724 106.935 20.1503C106.935 19.003 105.586 17.8903 102.898 16.8052C101.058 17.7175 99.1871 18.1564 97.3574 18.1564C96.5335 18.1564 95.8194 18.0907 95.2221 17.8903C93.0113 17.213 91.8922 15.8618 91.8922 13.7676C91.8922 12.5512 92.3041 11.1309 93.128 9.57581C95.3731 5.31836 98.3289 3.0203 101.995 2.7162L102.668 3.0825C104.017 2.37754 105.284 2.00432 106.41 2.00432C108.243 2.00432 109.589 2.7473 110.454 4.20216C111.092 5.31836 111.429 6.43456 111.429 7.5784C111.429 8.49071 111.165 9.37192 110.639 10.2842C110.303 10.7922 109.778 11.5006 108.995 12.3438C107.608 13.93 106.187 15.0808 104.656 15.8618C105.627 16.7015 106.561 17.4099 107.423 18.0907C108.995 18.6989 109.781 19.5421 109.781 20.5927C109.781 21.1006 109.633 21.5741 109.335 21.9784L107.577 24.3767C109.335 23.3641 110.567 22.8907 111.202 22.9218C111.951 22.6212 112.404 22.0441 112.555 21.2389L114.985 20.8657L116.891 24.2108L116.884 24.2039ZM109.208 4.77581C108.607 3.92916 107.896 3.52138 107.038 3.52138C106.551 3.52138 106.101 3.62505 105.651 3.82548L105.315 5.3149C105.202 5.28034 104.978 5.24579 104.642 5.24579C102.805 5.24579 101.607 6.39309 101.01 8.62548C100.859 9.23369 100.825 9.94211 100.825 10.654C100.825 12.7827 101.35 13.9646 102.435 14.203C107.299 11.2622 109.73 8.62548 109.73 6.36198C109.73 5.78833 109.544 5.28034 109.211 4.77581H109.208ZM101.01 15.5127C98.7649 14.1581 97.6423 12.2955 97.6423 9.9352C97.6423 9.22678 97.7487 8.48034 97.9787 7.74082C97.0793 8.07602 96.1833 8.95378 95.2805 10.3395C94.3055 11.8946 93.8215 13.3806 93.8215 14.87C93.8215 16.1209 94.381 16.7292 95.4658 16.7292C95.7302 16.7292 96.0666 16.6946 96.4374 16.5944C98.1229 16.6635 99.6197 16.2937 101.007 15.5162L101.01 15.5127ZM136.263 31.9101L134.165 36.1711C134.203 35.9326 134.237 35.6942 134.237 35.4626C134.237 34.5814 134.014 33.6035 133.643 32.4873L132.854 34.7197L130.533 30.2929C129.898 30.2272 129.376 30.1892 128.926 30.1892C124.323 30.1892 121.405 32.0484 120.21 35.7356L119.386 35.0238C118.336 36.6099 117.512 37.4566 116.839 37.5222L116.053 32.0449C118.336 31.606 120.324 29.3425 121.968 25.2544L122.864 25.8972L122.792 28.2298C124.062 26.9132 125.669 26.2324 127.656 26.2324H128.628C126.644 22.4173 124.697 17.2752 122.792 10.8579L119.836 11.8704C120.324 12.6825 120.921 14.4415 121.59 17.1784L120.324 20.8587L115.418 13.8333L116.321 10.9927L115.868 9.70713L116.915 6.02332C117.927 6.83542 119.239 7.23974 120.808 7.23974C123.877 7.23974 127.165 5.51533 130.718 2.00432L132.033 2.4743C131.134 4.9797 130.646 7.30885 130.646 9.47214C130.646 11.3279 131.055 12.8173 131.841 13.968L132.593 12.9175L133.643 14.4069C132.929 14.8458 132.479 16.8052 132.294 20.2851C130.162 18.1909 129.074 15.1499 129.074 11.1274C129.074 9.87646 129.153 8.62548 129.376 7.34341C129.112 7.61641 128.775 7.84795 128.439 8.08639C127.766 8.59093 126.644 9.16458 125.071 9.8108C125.219 10.5192 125.59 11.6354 126.122 13.187C127.395 16.7395 129.338 21.4324 131.958 27.2138C133.787 27.822 135.253 29.3771 136.263 31.9101ZM158.824 20.2851C158.824 24.508 157.471 28.4302 154.742 31.9793C152.198 35.2898 149.843 36.9451 147.704 36.9451C147.368 36.9451 147.032 36.8795 146.661 36.8104L146.362 37.5188C145.459 37.384 144.639 37.0799 143.853 36.6065C142.057 35.594 140.598 33.8661 139.441 31.4678C137.533 27.3451 136.561 23.6959 136.561 20.4855C136.561 20.5201 136.599 20.0432 136.633 19.0652C136.863 15.0428 137.536 11.6665 138.734 8.89503C139.143 7.84449 139.706 6.83196 140.382 5.78488C141.69 3.72527 143.077 2.50885 144.536 2.20129C145.061 2.06652 145.507 2.00086 145.919 2.00086C149.737 2.00086 152.885 4.63412 155.312 9.873C157.667 13.3218 158.83 16.8017 158.83 20.2816L158.824 20.2851ZM155.906 16.7015L154.412 17.7451L154.711 16.8017C152.953 10.851 150.221 7.2743 146.517 6.09244C145.954 5.91965 145.5 5.81944 145.164 5.81944C143.485 5.81944 141.91 6.83542 140.375 8.7879C139.177 10.4086 138.542 12.9797 138.542 16.4596C138.542 18.6229 138.765 20.8518 139.249 23.181C140.485 27.7806 142.658 30.8216 145.799 32.3076C146.472 32.8501 147.258 33.1197 148.199 33.1197C149.922 33.1197 151.865 32.2419 153.993 30.4864C155.981 28.2886 156.987 25.5862 156.987 22.3758C156.987 20.3819 156.616 18.4881 155.902 16.6981L155.906 16.7015ZM219.713 20.2851C219.713 24.508 218.326 28.4302 215.597 31.9793C213.053 35.2898 210.698 36.9451 208.56 36.9451C208.223 36.9451 207.887 36.8795 207.554 36.8104L207.217 37.5188C206.356 37.384 205.539 37.0799 204.708 36.6065C202.916 35.594 201.453 33.8661 200.331 31.4678C198.384 27.3451 197.413 23.6959 197.413 20.4855C197.413 20.5201 197.451 20.0432 197.485 19.0652C197.715 15.0428 198.422 11.6665 199.586 8.89503C200.032 7.84449 200.561 6.83196 201.234 5.78488C202.576 3.72527 203.963 2.50885 205.384 2.20129C205.906 2.06652 206.393 2.00086 206.768 2.00086C210.585 2.00086 213.729 4.63412 216.201 9.873C218.518 13.3218 219.717 16.8017 219.717 20.2816L219.713 20.2851ZM216.75 16.7015L215.291 17.7451L215.552 16.8017C213.798 10.851 211.062 7.2743 207.355 6.09244C206.833 5.91965 206.38 5.81944 206.009 5.81944C204.33 5.81944 202.755 6.83542 201.258 8.7879C200.025 10.4086 199.425 12.9797 199.425 16.4596C199.425 18.6229 199.648 20.8518 200.097 23.181C201.333 27.7806 203.541 30.8216 206.647 32.3076C207.32 32.8501 208.106 33.1197 209.044 33.1197C210.805 33.1197 212.713 32.2419 214.842 30.4864C216.823 28.2886 217.839 25.5862 217.839 22.3758C217.839 20.3819 217.461 18.4881 216.754 16.6981L216.75 16.7015ZM241.368 5.62246C241.138 9.67948 239.528 13.46 236.576 17.0125C235.268 18.5952 233.809 19.9188 232.236 21.0661C232.943 24.584 234.554 26.9788 237.063 28.2333C238.151 28.7758 238.972 29.7503 239.531 31.2052L238.522 35.4315C236.576 33.9767 235.381 32.7257 234.818 31.6406C233.623 31.105 232.387 30.8009 231.152 30.8009C227.523 30.8009 224.529 33.0609 222.168 37.5257L221.158 35.1205L221.91 33.3339C221.646 32.9987 221.533 32.6566 221.533 32.2868C221.533 31.879 221.611 31.5438 221.835 31.2708C222.171 30.7628 222.322 30.5935 222.322 30.7974C222.322 30.8665 222.322 30.9667 222.284 31.0635C224.529 26.9097 226.174 24.5425 227.19 24.038L228.388 25.0851C227.64 25.8626 227.152 26.8095 226.854 27.9257C227.753 27.2173 228.876 26.8786 230.221 26.8786C230.86 26.8786 231.344 26.9132 231.793 27.0445C230.856 25.2544 230.334 23.4298 230.187 21.505C226.668 21.6017 224.272 19.7425 222.998 15.8929C222.473 14.3032 222.216 12.3784 222.174 10.0803L221.467 10.5227L221.539 5.18013L222.106 5.0419L222.291 3.96371L223.153 2.91317V4.26782L227.121 2.13909L226.15 7.57494L223.417 9.33736C223.568 12.0708 224.317 14.0993 225.628 15.3158C226.751 16.3628 228.172 16.8017 229.892 16.6981L229.82 15.8238L231.165 15.5197L231.241 16.3974C234.759 15.2121 237.489 12.5166 239.435 8.32484C238.498 7.91706 237.595 7.75119 236.775 7.75119C235.879 7.75119 235.244 7.98272 234.828 8.45961C234.378 7.67862 234.121 6.86998 234.121 6.05788C234.121 5.68466 234.193 5.3149 234.306 5.0419C237.187 3.72527 238.948 3.18272 239.617 3.35551L239.356 2.78186L240.07 2.00432L241.382 5.619L241.368 5.62246ZM260.942 27.9603L259.857 31.3745C257.873 29.1732 255.704 28.0639 253.345 28.0639C249.569 28.0639 246.085 31.2052 242.906 37.5257L242.157 36.5754L242.044 33.873L242.528 33.0609C243.016 30.9391 243.688 28.6721 244.554 26.2359C246.758 20.3577 249.864 14.1408 253.943 7.61987L246.685 10.222L247.959 12.9935L246.61 17.2821L244.966 14.279C245.079 13.9369 245.113 13.6363 245.113 13.2942C245.113 12.9521 245.079 12.686 244.966 12.451L243.057 8.02419L244.073 5.18358L244.969 4.91404C245.044 5.65356 245.717 6.03024 246.991 6.03024C249.236 6.03024 252.94 4.67905 258.103 2.00777L257.88 3.56285L257.544 4.10194L257.396 5.52224C256.047 7.38142 254.663 9.57926 253.198 12.0778C249.871 17.759 247.139 23.6337 244.969 29.7192C248.223 26.1045 251.447 24.1486 254.622 23.8065C252.714 21.543 251.783 19.3486 251.783 17.1853C251.783 16.4423 251.931 15.6613 252.226 14.9218C252.793 15.7339 254.437 16.1348 257.128 16.1348H259.446L257.952 20.019L254.811 19.7875C255.069 20.7654 256.044 22.0821 257.729 23.6682C259.933 25.7313 260.983 27.1862 260.946 27.9637L260.942 27.9603Z" fill="#131314"/>
</svg>
